<svg xmlns="http://www.w3.org/2000/svg" xmlns:xlink="http://www.w3.org/1999/xlink" width="2000" zoomAndPan="magnify" viewBox="0 0 1500 1499.999933" height="2000" preserveAspectRatio="xMidYMid meet" version="1.0"><defs><clipPath id="3e70e7c74c"><path d="M 56.8125 56.8125 L 1442.8125 56.8125 L 1442.8125 1442.8125 L 56.8125 1442.8125 Z M 56.8125 56.8125 " clip-rule="nonzero"/></clipPath><clipPath id="094e53c034"><path d="M 330 180.277344 L 1058 180.277344 L 1058 1183 L 330 1183 Z M 330 180.277344 " clip-rule="nonzero"/></clipPath><clipPath id="c9b3455157"><path d="M 530 1116 L 1036 1116 L 1036 1263.277344 L 530 1263.277344 Z M 530 1116 " clip-rule="nonzero"/></clipPath></defs><g clip-path="url(#3e70e7c74c)"><path fill="#0097b2" d="M 613.894531 56.65625 L 885.785156 56.65625 C 913.476562 56.65625 938.628906 67.953125 956.808594 86.164062 C 975.019531 104.371094 986.3125 129.496094 986.3125 157.183594 L 986.3125 513.367188 L 1342.492188 513.367188 C 1370.183594 513.367188 1395.339844 524.660156 1413.515625 542.871094 C 1431.726562 561.078125 1443.019531 586.203125 1443.019531 613.894531 L 1443.019531 885.753906 C 1443.019531 913.441406 1431.726562 938.597656 1413.515625 956.777344 C 1395.308594 974.988281 1370.183594 986.28125 1342.492188 986.28125 L 986.3125 986.28125 L 986.3125 1342.460938 C 986.3125 1370.152344 975.019531 1395.308594 956.808594 1413.484375 C 938.597656 1431.695312 913.472656 1442.988281 885.785156 1442.988281 L 613.894531 1442.988281 C 586.203125 1442.988281 561.046875 1431.695312 542.871094 1413.484375 C 524.660156 1395.277344 513.367188 1370.152344 513.367188 1342.460938 L 513.367188 986.3125 L 157.1875 986.3125 C 129.496094 986.3125 104.339844 975.019531 86.164062 956.808594 C 67.984375 938.597656 56.65625 913.472656 56.65625 885.785156 L 56.65625 613.925781 C 56.65625 586.234375 67.953125 561.078125 86.164062 542.902344 C 104.371094 524.691406 129.496094 513.398438 157.1875 513.398438 L 513.367188 513.398438 L 513.367188 157.183594 C 513.367188 129.496094 524.660156 104.339844 542.871094 86.164062 C 561.046875 67.953125 586.203125 56.65625 613.894531 56.65625 " fill-opacity="1" fill-rule="evenodd"/></g><g clip-path="url(#094e53c034)"><path fill="#51da4d" d="M 367.503906 536.113281 C 367.503906 536.113281 93.371094 890.367188 1042.050781 1182.929688 C 1042.050781 1182.929688 737.113281 884.226562 817.230469 526.902344 C 897.257812 169.578125 1057.496094 185.023438 1057.496094 185.023438 C 1057.496094 185.023438 586.179688 95.695312 589.25 693.1875 C 415.242188 699.421875 367.503906 536.113281 367.503906 536.113281 Z M 367.503906 536.113281 " fill-opacity="1" fill-rule="evenodd"/></g><path fill="#ffde59" d="M 994.3125 435.246094 C 994.3125 435.246094 858.921875 443.898438 837.238281 604.695312 C 815.464844 765.492188 923.5 1032.832031 1126.726562 1211.402344 C 1126.726562 1211.402344 821.792969 712.449219 941.921875 549.234375 C 941.921875 549.234375 975.796875 495.355469 1025.113281 521.503906 L 998.128906 445.292969 Z M 994.3125 435.246094 " fill-opacity="1" fill-rule="evenodd"/><path fill="#f38536" d="M 576.96875 390.578125 C 576.96875 392.230469 576.929688 393.878906 576.847656 395.527344 C 576.765625 397.175781 576.644531 398.824219 576.484375 400.464844 C 576.320312 402.109375 576.117188 403.746094 575.875 405.378906 C 575.632812 407.011719 575.351562 408.640625 575.03125 410.257812 C 574.707031 411.878906 574.347656 413.488281 573.945312 415.089844 C 573.542969 416.691406 573.105469 418.28125 572.625 419.859375 C 572.144531 421.441406 571.628906 423.007812 571.070312 424.5625 C 570.515625 426.117188 569.921875 427.65625 569.289062 429.179688 C 568.660156 430.707031 567.988281 432.214844 567.285156 433.707031 C 566.578125 435.199219 565.835938 436.671875 565.058594 438.128906 C 564.28125 439.585938 563.464844 441.019531 562.617188 442.4375 C 561.769531 443.851562 560.886719 445.246094 559.96875 446.621094 C 559.050781 447.992188 558.101562 449.339844 557.117188 450.667969 C 556.132812 451.992188 555.121094 453.292969 554.070312 454.570312 C 553.023438 455.847656 551.945312 457.097656 550.839844 458.320312 C 549.730469 459.542969 548.589844 460.738281 547.425781 461.90625 C 546.257812 463.074219 545.0625 464.210938 543.839844 465.320312 C 542.617188 466.425781 541.367188 467.503906 540.089844 468.554688 C 538.8125 469.601562 537.511719 470.617188 536.1875 471.597656 C 534.859375 472.582031 533.511719 473.53125 532.140625 474.449219 C 530.765625 475.367188 529.371094 476.25 527.957031 477.097656 C 526.539062 477.945312 525.105469 478.761719 523.648438 479.539062 C 522.191406 480.316406 520.71875 481.058594 519.226562 481.765625 C 517.734375 482.46875 516.226562 483.140625 514.699219 483.769531 C 513.175781 484.402344 511.636719 484.996094 510.082031 485.554688 C 508.527344 486.109375 506.960938 486.625 505.378906 487.105469 C 503.800781 487.585938 502.210938 488.023438 500.609375 488.425781 C 499.007812 488.828125 497.394531 489.1875 495.777344 489.511719 C 494.160156 489.832031 492.53125 490.113281 490.898438 490.355469 C 489.265625 490.601562 487.628906 490.800781 485.984375 490.964844 C 484.34375 491.125 482.695312 491.246094 481.046875 491.328125 C 479.398438 491.410156 477.75 491.449219 476.097656 491.449219 C 474.449219 491.449219 472.796875 491.410156 471.148438 491.328125 C 469.5 491.246094 467.855469 491.125 466.210938 490.964844 C 464.570312 490.800781 462.929688 490.601562 461.296875 490.355469 C 459.664062 490.113281 458.039062 489.832031 456.417969 489.511719 C 454.800781 489.1875 453.191406 488.828125 451.589844 488.425781 C 449.988281 488.023438 448.398438 487.585938 446.816406 487.105469 C 445.238281 486.625 443.671875 486.109375 442.117188 485.554688 C 440.5625 484.996094 439.023438 484.402344 437.496094 483.769531 C 435.972656 483.140625 434.464844 482.46875 432.972656 481.765625 C 431.480469 481.058594 430.003906 480.316406 428.550781 479.539062 C 427.09375 478.761719 425.65625 477.945312 424.242188 477.097656 C 422.824219 476.25 421.429688 475.367188 420.058594 474.449219 C 418.6875 473.53125 417.335938 472.582031 416.011719 471.597656 C 414.683594 470.617188 413.382812 469.601562 412.109375 468.554688 C 410.832031 467.503906 409.582031 466.425781 408.359375 465.320312 C 407.136719 464.210938 405.941406 463.074219 404.773438 461.90625 C 403.605469 460.738281 402.46875 459.542969 401.359375 458.320312 C 400.25 457.097656 399.171875 455.847656 398.125 454.570312 C 397.078125 453.292969 396.0625 451.992188 395.078125 450.667969 C 394.097656 449.339844 393.144531 447.992188 392.226562 446.621094 C 391.3125 445.246094 390.429688 443.851562 389.578125 442.4375 C 388.730469 441.019531 387.917969 439.585938 387.140625 438.128906 C 386.359375 436.671875 385.621094 435.199219 384.914062 433.707031 C 384.207031 432.214844 383.539062 430.707031 382.90625 429.179688 C 382.273438 427.65625 381.679688 426.117188 381.125 424.5625 C 380.570312 423.007812 380.050781 421.441406 379.570312 419.859375 C 379.09375 418.28125 378.652344 416.691406 378.25 415.089844 C 377.851562 413.488281 377.488281 411.878906 377.167969 410.257812 C 376.84375 408.640625 376.5625 407.011719 376.320312 405.378906 C 376.078125 403.746094 375.875 402.109375 375.714844 400.464844 C 375.554688 398.824219 375.429688 397.175781 375.351562 395.527344 C 375.269531 393.878906 375.230469 392.230469 375.230469 390.578125 C 375.230469 388.929688 375.269531 387.277344 375.351562 385.628906 C 375.429688 383.980469 375.554688 382.335938 375.714844 380.691406 C 375.875 379.050781 376.078125 377.410156 376.320312 375.777344 C 376.5625 374.144531 376.84375 372.519531 377.167969 370.902344 C 377.488281 369.28125 377.851562 367.671875 378.25 366.070312 C 378.652344 364.46875 379.09375 362.878906 379.570312 361.296875 C 380.050781 359.71875 380.570312 358.152344 381.125 356.597656 C 381.679688 355.042969 382.273438 353.503906 382.90625 351.976562 C 383.539062 350.453125 384.207031 348.945312 384.914062 347.453125 C 385.621094 345.960938 386.359375 344.484375 387.140625 343.03125 C 387.917969 341.574219 388.730469 340.136719 389.578125 338.722656 C 390.429688 337.304688 391.3125 335.910156 392.226562 334.539062 C 393.144531 333.167969 394.097656 331.816406 395.078125 330.492188 C 396.0625 329.164062 397.078125 327.863281 398.125 326.589844 C 399.171875 325.3125 400.25 324.0625 401.359375 322.839844 C 402.46875 321.617188 403.605469 320.421875 404.773438 319.253906 C 405.941406 318.085938 407.136719 316.949219 408.359375 315.839844 C 409.582031 314.730469 410.832031 313.652344 412.109375 312.605469 C 413.382812 311.558594 414.683594 310.542969 416.011719 309.558594 C 417.335938 308.578125 418.6875 307.625 420.058594 306.710938 C 421.429688 305.792969 422.824219 304.910156 424.242188 304.058594 C 425.65625 303.210938 427.09375 302.398438 428.550781 301.621094 C 430.003906 300.84375 431.480469 300.101562 432.972656 299.394531 C 434.464844 298.6875 435.972656 298.019531 437.496094 297.386719 C 439.023438 296.757812 440.5625 296.164062 442.117188 295.605469 C 443.671875 295.050781 445.238281 294.53125 446.816406 294.054688 C 448.398438 293.574219 449.988281 293.132812 451.589844 292.734375 C 453.191406 292.332031 454.800781 291.96875 456.417969 291.648438 C 458.039062 291.324219 459.664062 291.042969 461.296875 290.800781 C 462.929688 290.558594 464.570312 290.355469 466.210938 290.195312 C 467.855469 290.035156 469.5 289.910156 471.148438 289.832031 C 472.796875 289.75 474.449219 289.710938 476.097656 289.710938 C 477.75 289.710938 479.398438 289.75 481.046875 289.832031 C 482.695312 289.910156 484.34375 290.035156 485.984375 290.195312 C 487.628906 290.355469 489.265625 290.558594 490.898438 290.800781 C 492.53125 291.042969 494.160156 291.324219 495.777344 291.648438 C 497.394531 291.96875 499.007812 292.332031 500.609375 292.734375 C 502.210938 293.132812 503.800781 293.574219 505.378906 294.054688 C 506.960938 294.53125 508.527344 295.050781 510.082031 295.605469 C 511.636719 296.164062 513.175781 296.757812 514.699219 297.386719 C 516.226562 298.019531 517.734375 298.6875 519.226562 299.394531 C 520.71875 300.101562 522.191406 300.84375 523.648438 301.621094 C 525.105469 302.398438 526.539062 303.210938 527.957031 304.058594 C 529.371094 304.910156 530.765625 305.792969 532.140625 306.710938 C 533.511719 307.625 534.859375 308.578125 536.1875 309.558594 C 537.511719 310.542969 538.8125 311.558594 540.089844 312.605469 C 541.367188 313.652344 542.617188 314.730469 543.839844 315.839844 C 545.0625 316.949219 546.257812 318.085938 547.425781 319.253906 C 548.589844 320.421875 549.730469 321.617188 550.839844 322.839844 C 551.945312 324.0625 553.023438 325.3125 554.070312 326.589844 C 555.121094 327.863281 556.132812 329.164062 557.117188 330.492188 C 558.101562 331.816406 559.050781 333.167969 559.96875 334.539062 C 560.886719 335.910156 561.769531 337.304688 562.617188 338.722656 C 563.464844 340.136719 564.28125 341.574219 565.058594 343.03125 C 565.835938 344.484375 566.578125 345.960938 567.285156 347.453125 C 567.988281 348.945312 568.660156 350.453125 569.289062 351.976562 C 569.921875 353.503906 570.515625 355.042969 571.070312 356.597656 C 571.628906 358.152344 572.144531 359.71875 572.625 361.296875 C 573.105469 362.878906 573.542969 364.46875 573.945312 366.070312 C 574.347656 367.671875 574.707031 369.28125 575.03125 370.902344 C 575.351562 372.519531 575.632812 374.144531 575.875 375.777344 C 576.117188 377.410156 576.320312 379.050781 576.484375 380.691406 C 576.644531 382.335938 576.765625 383.980469 576.847656 385.628906 C 576.929688 387.277344 576.96875 388.929688 576.96875 390.578125 Z M 576.96875 390.578125 " fill-opacity="1" fill-rule="nonzero"/><g clip-path="url(#c9b3455157)"><path fill="#ffde59" d="M 530.90625 1235.316406 C 530.90625 1235.316406 526.535156 1148.3125 627.683594 1122.816406 C 728.738281 1097.226562 907.214844 1146.824219 1035.90625 1263.699219 C 1035.90625 1263.699219 695.332031 1105.136719 599.859375 1193.628906 C 599.859375 1193.628906 567.847656 1219.21875 588.136719 1248.71875 L 537.515625 1237.085938 Z M 530.90625 1235.316406 " fill-opacity="1" fill-rule="evenodd"/></g></svg>